<svg width="359.326" height="122.754" viewBox="0 0 359.326 122.754" xmlns="http://www.w3.org/2000/svg"><g id="svgGroup" stroke-linecap="round" fill-rule="evenodd" font-size="9pt" stroke="#e6ab0a" stroke-width="0.25mm" fill="#ffbb00" style="stroke:#e6ab0a;stroke-width:0.25mm;fill:#ffbb00"><path d="M 144.678 84.18 L 144.727 84.18 Q 144.824 84.18 144.922 84.058 Q 145.02 83.936 145.02 83.789 Q 145.02 83.74 144.922 83.569 Q 144.824 83.398 144.678 83.203 Q 144.531 83.008 144.434 82.861 L 144.336 82.715 Q 144.336 82.422 144.556 81.982 L 145.068 80.957 Q 145.361 80.371 145.581 79.688 Q 145.801 79.004 145.801 78.223 Q 145.801 77.734 145.606 77.222 Q 145.41 76.709 145.41 76.123 Q 145.41 75.781 145.532 75.195 Q 145.654 74.609 145.874 73.901 Q 146.094 73.193 146.338 72.534 Q 146.582 71.875 146.875 71.387 L 146.875 71.24 Q 146.875 70.85 146.704 70.63 Q 146.533 70.41 146.533 69.922 Q 146.533 69.678 146.68 69.312 Q 146.826 68.945 146.875 68.457 Q 146.924 67.285 147.046 66.284 Q 147.168 65.283 147.315 64.355 Q 147.461 63.428 147.632 62.476 Q 147.803 61.523 147.949 60.449 Q 148.047 59.912 148.389 59.253 Q 148.731 58.594 148.731 57.813 Q 148.731 57.129 148.535 56.567 Q 148.34 56.006 148.34 55.371 Q 148.731 54.541 148.804 53.882 Q 148.877 53.223 149.072 52.051 Q 149.463 49.414 150 46.533 Q 150.537 43.652 150.537 41.357 Q 150.537 40.723 150.342 40.381 Q 150.147 40.039 150.147 39.648 Q 150.195 39.16 150.464 38.086 Q 150.732 37.012 151.025 35.571 Q 151.318 34.131 151.563 32.397 Q 151.807 30.664 151.807 28.809 Q 151.807 28.125 151.709 27.856 Q 151.611 27.588 151.367 27.588 Q 150.977 27.588 150.342 27.93 Q 149.707 28.271 149.072 28.711 Q 148.975 28.809 148.901 29.102 Q 148.828 29.395 148.731 29.443 Q 148.34 29.59 147.974 29.688 Q 147.607 29.785 147.217 30.176 Q 147.022 30.419 147.07 30.565 Q 147.119 30.713 146.875 30.908 Q 146.631 31.104 146.436 31.177 Q 146.24 31.25 146.143 31.641 Q 146.094 31.885 145.972 32.227 Q 145.85 32.568 145.63 32.886 Q 145.41 33.203 145.142 33.447 Q 144.873 33.691 144.531 33.691 Q 144.19 33.691 143.921 33.472 Q 143.652 33.252 143.652 32.471 Q 143.652 31.934 143.75 31.519 Q 143.848 31.104 143.945 30.859 Q 144.092 30.566 144.287 30.371 L 144.287 30.42 L 144.385 30.42 L 144.775 30.029 L 145.752 29.053 L 147.022 27.783 Q 147.705 27.1 148.34 26.514 Q 148.535 26.318 148.877 26.367 Q 149.219 26.416 149.414 26.172 Q 150.635 24.951 151.148 24.341 Q 151.66 23.73 151.831 23.413 Q 152.002 23.096 152.124 22.876 Q 152.246 22.656 152.686 22.168 Q 153.369 21.436 154.028 21.045 Q 154.688 20.654 155.615 19.971 Q 156.006 19.678 156.299 19.263 Q 156.592 18.848 157.178 18.848 Q 158.447 18.848 158.691 19.141 Q 158.936 19.434 158.936 19.824 Q 158.936 20.85 158.765 22.29 Q 158.594 23.73 158.399 25.049 Q 158.203 26.367 158.032 27.295 Q 157.861 28.223 157.813 28.223 Q 157.813 28.76 157.983 29.102 Q 158.154 29.443 158.154 29.785 Q 157.861 33.398 157.105 37.451 Q 156.348 41.504 155.957 45.508 Q 155.713 47.949 155.689 50.537 Q 155.664 53.125 155.274 55.371 Q 155.176 55.957 154.907 56.47 Q 154.639 56.982 154.541 57.52 Q 154.443 58.398 154.443 59.302 Q 154.443 60.205 154.346 61.328 Q 154.248 62.451 153.98 63.916 Q 153.711 65.381 153.076 67.383 Q 153.027 67.529 152.832 67.969 Q 152.637 68.408 152.686 68.457 Q 152.881 68.75 153.125 68.75 Q 153.906 68.75 154.834 67.993 Q 155.762 67.236 156.69 66.113 Q 157.617 64.99 158.545 63.647 Q 159.473 62.305 160.352 61.182 Q 160.645 60.791 160.864 60.254 Q 161.084 59.717 161.426 59.326 Q 161.914 58.74 162.72 57.617 Q 163.525 56.494 164.331 55.249 Q 165.137 54.004 165.82 52.856 Q 166.504 51.709 166.748 51.025 Q 166.895 50.684 167.212 50.073 Q 167.529 49.463 167.871 48.853 Q 168.213 48.242 168.482 47.778 Q 168.748 47.319 168.75 47.267 Q 168.799 46.533 169.58 46.533 Q 169.873 46.533 170.386 46.802 Q 170.899 47.07 171.387 47.485 Q 171.875 47.9 172.241 48.413 Q 172.607 48.926 172.607 49.365 Q 172.607 50.049 171.875 50.879 Q 171.143 51.709 170.41 52.49 Q 169.971 52.979 168.994 54.321 Q 168.018 55.664 166.919 57.3 Q 165.82 58.936 164.746 60.498 Q 163.672 62.061 162.94 62.988 Q 162.354 63.721 161.89 64.209 Q 161.426 64.697 161.133 65.063 Q 160.84 65.43 160.669 65.747 Q 160.498 66.064 160.498 66.553 Q 160.498 66.797 160.596 67.383 Q 160.693 67.969 160.889 68.726 Q 161.084 69.482 161.328 70.288 Q 161.572 71.094 161.816 71.777 Q 161.914 71.973 162.183 72.314 Q 162.451 72.656 162.549 72.852 Q 163.379 74.707 164.209 76.758 Q 165.039 78.809 165.918 80.542 Q 166.797 82.275 167.774 83.423 Q 168.75 84.57 169.873 84.57 Q 170.41 84.57 170.703 84.326 Q 170.996 84.082 171.289 83.716 Q 171.582 83.35 171.997 82.886 Q 172.412 82.422 173.145 81.934 Q 173.389 81.787 173.657 81.787 Q 173.926 81.787 174.17 81.738 Q 174.414 81.689 174.585 81.494 Q 174.756 81.299 174.756 80.762 Q 174.756 80.322 174.902 80.151 Q 175.049 79.98 175.269 79.956 Q 175.488 79.932 175.708 79.932 Q 175.928 79.932 176.025 79.785 Q 176.367 79.395 176.489 78.882 Q 176.611 78.369 176.782 77.93 Q 176.953 77.49 177.246 77.173 Q 177.539 76.855 178.223 76.855 Q 178.32 77.246 178.613 77.393 Q 178.906 77.539 178.955 77.93 Q 178.955 78.223 178.784 78.516 Q 178.613 78.809 178.369 79.053 Q 178.125 79.297 177.881 79.565 Q 177.637 79.834 177.49 80.127 Q 177.295 80.469 177.319 80.859 Q 177.344 81.25 177.1 81.592 Q 176.807 82.031 175.513 83.081 Q 174.219 84.131 172.363 86.328 Q 172.119 86.719 171.997 87.256 Q 171.875 87.793 171.631 88.184 Q 171.387 88.574 170.899 89.087 Q 170.41 89.6 169.849 90.039 Q 169.287 90.479 168.677 90.796 Q 168.066 91.113 167.578 91.113 Q 166.846 91.113 166.211 90.796 Q 165.576 90.479 164.99 89.966 Q 164.404 89.453 163.818 88.77 Q 163.232 88.086 162.549 87.402 Q 162.207 87.061 161.939 86.45 Q 161.67 85.84 161.401 85.181 Q 161.133 84.521 160.815 83.862 Q 160.498 83.203 160.01 82.715 Q 159.766 82.422 159.277 82.202 Q 158.789 81.982 158.545 81.592 Q 158.301 81.25 158.35 80.884 Q 158.399 80.518 158.154 80.127 Q 157.959 79.785 157.324 78.687 Q 156.69 77.588 155.957 76.465 Q 155.225 75.342 154.59 74.438 Q 153.955 73.535 153.809 73.535 Q 153.125 73.535 152.661 74.194 Q 152.197 74.854 151.929 75.757 Q 151.66 76.66 151.538 77.661 Q 151.416 78.662 151.416 79.297 Q 151.416 80.273 151.367 81.055 Q 151.318 81.836 151.172 82.593 Q 151.025 83.35 150.781 84.155 Q 150.537 84.961 150.147 85.986 Q 149.854 86.768 149.561 87.671 Q 149.268 88.574 149.072 88.867 Q 148.926 89.063 148.535 89.185 Q 148.145 89.307 147.607 89.6 Q 147.363 89.746 147.168 90.015 Q 146.973 90.283 146.753 90.503 Q 146.533 90.723 146.191 90.894 Q 145.85 91.064 145.361 91.064 Q 143.75 91.064 143.75 90.088 Q 143.75 89.648 143.945 89.136 Q 144.141 88.623 144.409 88.11 Q 144.678 87.598 144.873 87.134 Q 145.068 86.67 145.068 86.279 Q 145.068 85.791 144.922 85.327 Q 144.775 84.863 144.678 84.18 Z M 237.549 62.988 L 237.549 63.379 Q 236.426 65.869 234.863 68.188 Q 233.301 70.508 232.08 72.852 Q 231.982 73.047 231.934 73.389 Q 231.885 73.73 231.738 73.926 Q 231.641 74.023 231.323 74.121 Q 231.006 74.219 230.957 74.316 Q 230.762 74.756 230.811 75.269 Q 230.859 75.781 230.615 76.123 Q 230.42 76.465 229.883 77.002 Q 229.346 77.539 228.735 78.174 Q 228.125 78.809 227.612 79.517 Q 227.1 80.225 226.953 80.859 Q 226.807 81.445 226.367 82.178 Q 225.928 82.91 225.342 83.74 Q 224.756 84.57 224.121 85.425 Q 223.486 86.279 222.949 87.061 Q 222.803 87.305 222.363 87.842 Q 221.924 88.379 221.875 88.916 L 221.875 89.258 Q 221.24 90.088 220.459 90.601 Q 219.678 91.113 218.945 91.113 Q 218.408 91.113 217.896 90.771 Q 217.383 90.43 217.09 89.6 Q 216.895 89.111 216.87 88.599 Q 216.846 88.086 216.821 87.378 Q 216.797 86.67 216.626 85.718 Q 216.455 84.766 216.016 83.447 Q 215.918 83.057 215.601 82.91 Q 215.283 82.764 215.283 82.373 Q 215.283 82.227 215.308 82.056 Q 215.332 81.885 215.332 81.738 Q 215.332 81.494 215.186 81.177 Q 215.039 80.859 214.941 80.518 Q 214.697 79.492 214.356 78.149 Q 214.014 76.807 213.672 75.391 Q 213.33 73.975 213.013 72.632 Q 212.695 71.289 212.402 70.313 Q 212.354 70.215 212.354 70.068 Q 212.354 69.971 212.378 69.824 Q 212.402 69.678 212.402 69.58 Q 212.305 69.238 212.207 68.75 Q 212.109 68.262 211.865 67.334 Q 211.621 66.406 211.157 64.941 Q 210.693 63.477 209.863 61.182 Q 209.326 59.57 209.131 58.057 Q 208.936 56.543 208.35 54.59 Q 208.252 54.346 208.276 53.54 Q 208.301 52.734 207.666 51.318 Q 207.422 50.781 207.446 50.269 Q 207.471 49.756 207.275 48.779 Q 207.129 48.047 206.86 46.484 Q 206.592 44.922 206.25 43.286 Q 205.908 41.65 205.591 40.381 Q 205.274 39.111 205.078 38.965 Q 204.981 38.867 204.346 38.867 Q 203.809 38.867 203.491 38.989 Q 203.174 39.111 202.954 39.282 Q 202.734 39.453 202.564 39.575 Q 202.393 39.697 202.197 39.697 L 201.709 39.697 Q 200.879 39.697 200.244 39.453 Q 199.609 39.209 199.609 38.33 Q 199.609 37.646 200.098 37.402 Q 200.586 37.158 201.343 37.109 Q 202.1 37.061 203.076 37.036 Q 204.053 37.012 205.078 36.768 Q 205.762 36.621 206.25 36.279 Q 206.738 35.938 207.275 35.645 Q 207.52 35.547 207.959 35.522 Q 208.399 35.498 208.74 35.303 Q 208.887 35.205 208.936 35.083 Q 208.984 34.961 209.058 34.839 Q 209.131 34.717 209.302 34.619 Q 209.473 34.521 209.863 34.521 Q 210.498 34.521 211.108 34.717 Q 211.719 34.912 212.402 34.912 Q 213.574 34.912 214.893 34.521 Q 216.211 34.131 217.334 34.131 Q 217.92 34.131 218.408 34.302 Q 218.897 34.473 219.287 34.912 Q 219.19 35.596 218.311 35.815 Q 217.432 36.035 216.431 36.133 Q 215.43 36.23 214.6 36.401 Q 213.77 36.572 213.77 37.109 Q 213.77 38.77 214.063 40.698 Q 214.356 42.627 214.697 44.312 Q 215.039 45.996 215.332 47.241 Q 215.625 48.486 215.674 48.779 Q 215.918 50.83 216.065 52.93 Q 216.211 55.029 216.748 57.178 Q 216.846 57.715 216.846 58.398 Q 216.846 59.082 217.09 60.059 Q 217.139 60.4 217.407 61.182 Q 217.676 61.963 217.92 62.817 Q 218.164 63.672 218.384 64.429 Q 218.604 65.186 218.604 65.527 Q 218.604 65.771 218.579 66.064 Q 218.555 66.357 218.555 66.602 Q 218.555 67.188 218.945 68.042 Q 219.336 68.896 219.678 69.922 Q 219.775 70.215 219.898 70.386 Q 220.02 70.557 220.02 70.654 Q 220.313 71.533 220.386 72.559 Q 220.459 73.584 220.801 74.707 Q 221.094 75.293 221.411 76.416 Q 221.729 77.539 222.07 78.662 Q 222.412 79.785 222.778 80.615 Q 223.145 81.445 223.584 81.445 Q 223.828 81.445 224.048 81.104 Q 224.268 80.762 224.512 80.298 Q 224.756 79.834 225 79.297 Q 225.244 78.76 225.488 78.32 Q 226.172 77.197 226.807 76.343 Q 227.441 75.488 227.686 75.049 Q 227.881 74.756 227.881 74.487 Q 227.881 74.219 228.027 73.926 L 230.615 69.922 Q 230.713 69.727 230.762 69.409 Q 230.811 69.092 230.957 68.848 Q 231.152 68.604 231.323 68.579 Q 231.494 68.555 231.616 68.408 Q 231.738 68.262 231.812 67.871 Q 231.885 67.48 231.885 66.455 Q 231.885 65.918 232.031 65.601 Q 232.178 65.283 232.349 65.137 Q 232.52 64.99 232.666 64.893 Q 232.813 64.795 232.813 64.697 Q 232.813 64.6 232.788 64.478 Q 232.764 64.355 232.764 64.258 Q 232.764 64.16 232.813 64.111 Q 233.106 63.525 233.496 62.646 Q 233.887 61.768 234.253 60.84 Q 234.619 59.912 235.01 59.033 Q 235.4 58.154 235.693 57.52 Q 236.182 56.885 236.377 56.689 Q 236.572 56.494 236.572 55.859 L 236.572 55.322 Q 236.572 54.785 236.743 54.688 Q 236.914 54.59 237.207 53.906 Q 237.451 52.832 237.451 51.782 Q 237.451 50.732 237.891 49.902 Q 238.379 48.975 238.77 47.681 Q 239.16 46.387 239.478 44.897 Q 239.795 43.408 240.039 41.87 Q 240.283 40.332 240.479 38.965 Q 240.283 39.063 240.186 39.063 Q 239.941 39.063 239.673 38.965 Q 239.404 38.867 239.014 38.867 Q 238.623 38.867 238.379 38.989 Q 238.135 39.111 237.94 39.282 Q 237.744 39.453 237.573 39.575 Q 237.402 39.697 237.207 39.697 Q 236.914 39.697 236.548 39.673 Q 236.182 39.648 235.815 39.526 Q 235.449 39.404 235.205 39.16 Q 234.961 38.916 234.961 38.477 Q 234.961 37.256 236.035 36.987 Q 237.109 36.719 238.965 36.719 Q 240.43 36.719 241.724 36.035 Q 243.018 35.352 244.434 34.229 Q 244.58 34.131 244.898 33.813 Q 245.215 33.496 245.459 33.496 L 245.557 33.496 Q 246.191 33.496 246.436 33.716 Q 246.68 33.936 246.753 34.204 Q 246.826 34.473 246.851 34.692 Q 246.875 34.912 247.07 34.912 Q 247.412 34.912 248.047 34.766 Q 248.682 34.619 249.39 34.448 Q 250.098 34.277 250.83 34.131 Q 251.563 33.984 252.197 33.984 Q 253.272 33.984 253.613 34.57 Q 253.369 35.449 252.564 35.791 Q 251.758 36.133 250.757 36.23 Q 249.756 36.328 248.804 36.377 Q 247.852 36.426 247.363 36.768 Q 247.07 36.963 246.899 37.402 Q 246.729 37.842 246.582 38.403 Q 246.436 38.965 246.289 39.6 Q 246.143 40.234 245.947 40.771 Q 245.41 41.455 245.142 42.236 Q 244.873 43.018 244.727 43.896 Q 244.58 44.775 244.458 45.728 Q 244.336 46.68 244.092 47.705 Q 243.457 48.975 242.847 50.757 Q 242.236 52.539 241.162 54.59 Q 241.065 54.834 240.796 55.029 Q 240.527 55.225 240.479 55.371 Q 240.234 55.811 240.332 56.372 Q 240.43 56.934 240.088 57.52 Q 239.99 57.666 239.697 57.739 Q 239.404 57.813 239.356 57.91 Q 239.16 58.35 239.185 58.936 Q 239.209 59.521 238.965 60.059 Q 238.916 60.205 238.623 60.474 Q 238.33 60.742 238.281 60.84 Q 238.086 61.426 238.11 61.792 Q 238.135 62.158 237.891 62.646 Q 237.793 62.744 237.671 62.72 Q 237.549 62.695 237.549 62.988 Z M 320.459 6.006 L 320.459 5.957 Q 319.629 7.715 319.116 8.74 Q 318.604 9.766 318.164 10.425 Q 317.725 11.084 317.334 11.572 L 316.357 12.793 Q 316.065 12.891 315.332 13.574 Q 314.6 14.258 313.77 15.088 Q 312.94 15.918 312.207 16.602 Q 311.475 17.285 311.182 17.383 Q 311.035 17.822 310.571 18.262 Q 310.107 18.701 309.473 19.092 Q 308.838 19.482 308.154 19.897 Q 307.471 20.313 306.885 20.703 Q 305.908 21.387 305.249 21.851 Q 304.59 22.314 303.955 22.705 Q 303.32 23.096 302.588 23.413 Q 301.856 23.73 300.732 24.072 Q 298.682 24.707 296.143 25.146 Q 293.604 25.586 291.26 25.586 Q 289.746 25.586 288.232 25.415 Q 286.719 25.244 285.938 24.854 Q 285.646 25.145 285.645 25.243 Q 285.645 25.439 285.889 25.562 Q 286.133 25.684 286.279 25.928 Q 286.475 26.221 286.621 26.66 Q 286.768 27.1 287.012 27.393 Q 287.5 28.027 288.159 28.516 Q 288.818 29.004 289.209 29.59 Q 289.453 29.883 289.575 30.444 Q 289.697 31.006 289.941 31.396 Q 290.186 31.836 290.503 32.153 Q 290.82 32.471 291.065 32.861 Q 291.992 34.521 292.676 35.938 Q 293.359 37.354 294.336 39.063 Q 294.531 39.453 294.873 39.795 Q 295.215 40.137 295.41 40.527 Q 295.557 40.918 295.581 41.406 Q 295.606 41.895 295.801 42.334 Q 296.387 43.994 297.095 45.776 Q 297.803 47.559 298.34 49.268 Q 298.584 50.195 298.706 51.27 Q 298.828 52.344 299.072 53.271 Q 299.512 55.029 299.902 56.348 Q 300.293 57.666 300.293 59.521 Q 300.293 60.352 300.244 61.182 Q 300.195 62.012 300.147 62.793 Q 300.049 63.525 299.683 64.258 Q 299.316 64.99 299.365 65.82 Q 299.365 66.211 299.414 66.577 Q 299.463 66.943 299.463 67.285 Q 299.463 68.311 299.17 69.36 Q 298.877 70.41 298.486 71.509 Q 298.096 72.607 297.656 73.706 Q 297.217 74.805 296.875 75.879 Q 296.68 76.563 296.265 77.393 Q 295.85 78.223 295.41 79.004 Q 294.971 79.785 294.653 80.42 Q 294.336 81.055 294.336 81.348 Q 294.336 81.592 294.116 81.714 Q 293.897 81.836 293.579 81.934 Q 293.262 82.031 292.944 82.153 Q 292.627 82.275 292.481 82.471 Q 291.992 83.154 291.773 84.155 Q 291.553 85.156 291.065 86.084 Q 291.016 86.133 290.723 86.45 Q 290.43 86.768 290.088 87.183 Q 289.746 87.598 289.478 87.988 Q 289.209 88.379 289.209 88.623 Q 289.209 88.867 288.965 88.989 Q 288.721 89.111 288.355 89.258 Q 287.988 89.404 287.524 89.6 Q 287.061 89.795 286.67 90.137 Q 286.475 90.283 286.328 90.601 Q 286.182 90.918 285.962 91.211 Q 285.742 91.504 285.449 91.748 Q 285.156 91.992 284.717 91.992 Q 284.473 91.992 284.155 91.943 Q 283.838 91.895 283.594 91.895 Q 283.203 91.895 282.959 92.285 Q 282.715 92.676 282.324 92.676 Q 281.885 92.676 281.714 92.554 Q 281.543 92.432 281.421 92.261 Q 281.299 92.09 281.201 91.895 Q 281.104 91.699 280.811 91.553 Q 280.274 91.309 279.541 91.309 Q 278.809 91.309 278.613 91.211 Q 278.32 90.967 277.905 90.039 Q 277.49 89.111 276.856 88.281 Q 276.465 87.842 276.148 87.549 Q 275.83 87.256 275.537 86.987 Q 275.244 86.719 275.024 86.353 Q 274.805 85.986 274.658 85.352 Q 274.561 84.961 274.292 84.814 Q 274.024 84.668 273.926 84.277 Q 273.584 83.35 273.486 82.666 Q 273.389 81.982 273.145 80.957 Q 273.145 80.762 273.023 80.347 Q 272.9 79.932 272.778 79.468 Q 272.656 79.004 272.559 78.54 Q 272.461 78.076 272.461 77.783 Q 272.461 76.416 272.632 75.049 Q 272.803 73.682 272.803 72.51 Q 272.803 71.875 272.852 71.289 Q 272.9 70.703 273.145 70.02 Q 273.242 69.873 273.535 69.482 Q 273.828 69.092 273.926 68.945 Q 274.268 67.725 274.658 66.675 Q 275.049 65.625 275.586 64.478 Q 276.123 63.33 276.856 61.89 Q 277.588 60.449 278.613 58.398 Q 278.711 58.203 278.784 57.837 Q 278.857 57.471 279.004 57.324 Q 279.053 57.275 279.273 57.178 Q 279.492 57.08 279.761 56.958 Q 280.029 56.836 280.249 56.714 Q 280.469 56.592 280.469 56.445 Q 280.469 56.348 280.444 56.201 Q 280.42 56.055 280.42 55.957 L 280.859 55.469 Q 281.299 54.98 281.885 54.321 Q 282.471 53.662 283.081 53.027 Q 283.691 52.393 284.082 52.197 Q 284.473 52.002 284.863 52.026 Q 285.254 52.051 285.596 51.855 Q 286.035 51.514 286.377 50.879 Q 286.719 50.244 287.012 50 Q 287.451 49.609 288.086 49.17 Q 288.721 48.73 289.282 48.291 Q 289.844 47.852 290.259 47.485 Q 290.674 47.119 290.674 46.875 Q 290.674 46.24 290.234 45.361 Q 289.795 44.482 289.233 43.652 Q 288.672 42.822 288.232 42.163 Q 287.793 41.504 287.793 41.26 Q 287.744 40.918 287.451 40.527 Q 287.158 40.137 286.816 39.722 Q 286.475 39.307 286.206 38.965 Q 285.938 38.623 285.938 38.33 Q 285.938 38.037 285.645 37.622 Q 285.352 37.207 285.01 36.768 Q 284.668 36.328 284.375 35.938 Q 284.082 35.547 284.082 35.303 Q 284.082 34.326 282.983 33.032 Q 281.885 31.738 280.469 29.98 Q 280.42 29.932 280.42 29.834 Q 280.42 29.736 280.444 29.59 Q 280.469 29.443 280.469 29.346 Q 280.469 29.102 279.907 28.564 Q 279.346 28.027 278.662 27.393 Q 277.979 26.758 277.417 26.147 Q 276.856 25.537 276.856 25.195 Q 276.807 24.756 276.05 24.121 Q 275.293 23.486 274.414 22.778 Q 273.535 22.07 272.803 21.362 Q 272.07 20.654 272.07 20.117 Q 272.217 19.189 272.632 19.043 Q 273.047 18.896 273.926 18.652 Q 274.219 18.604 274.707 18.359 L 275.732 17.847 Q 276.27 17.578 276.856 17.383 Q 277.441 17.188 277.93 17.188 Q 278.76 17.188 279.761 17.505 Q 280.762 17.822 281.543 18.262 Q 281.69 18.359 281.934 18.677 Q 282.178 18.994 282.324 19.043 Q 283.008 19.287 283.887 19.214 Q 284.766 19.141 285.596 19.385 Q 285.938 19.482 286.182 19.824 Q 286.426 20.166 286.816 20.166 Q 286.914 20.166 287.036 20.142 Q 287.158 20.117 287.256 20.117 Q 287.451 20.117 288.184 20.239 Q 288.916 20.361 289.917 20.508 Q 290.918 20.654 292.017 20.776 Q 293.115 20.898 293.994 20.898 Q 295.215 20.898 296.875 20.654 Q 298.535 20.41 300.195 19.995 Q 301.856 19.58 303.296 18.994 Q 304.736 18.408 305.518 17.725 Q 305.908 17.383 306.201 16.943 Q 306.494 16.504 306.934 16.113 Q 307.617 15.479 308.423 15.063 Q 309.229 14.648 310.059 13.916 Q 311.328 12.793 312.964 11.255 Q 314.6 9.717 315.82 8.252 Q 316.113 7.91 316.602 7.251 Q 317.09 6.592 317.578 5.737 Q 318.066 4.883 318.506 3.931 Q 318.945 2.979 319.19 2.1 Q 319.287 1.123 319.653 0.562 Q 320.02 0 320.41 0 Q 321.191 0 321.191 1.709 L 321.094 2.368 Q 320.996 3.027 320.874 3.833 Q 320.752 4.639 320.63 5.322 Q 320.508 6.006 320.459 6.006 Z M 69.775 58.545 L 69.775 60.059 Q 69.678 60.303 69.336 60.718 Q 68.994 61.133 68.994 62.061 Q 68.994 62.842 69.19 63.647 Q 69.385 64.453 69.385 65.186 Q 69.385 66.504 69.067 68.091 Q 68.75 69.678 68.384 71.069 Q 68.018 72.461 67.7 73.413 Q 67.383 74.365 67.383 74.414 L 67.383 75.684 Q 67.383 76.172 67.358 76.563 Q 67.334 76.953 67.236 77.246 Q 67.188 77.295 67.041 77.319 Q 66.895 77.344 66.846 77.588 Q 66.65 78.369 66.089 78.687 Q 65.527 79.004 65.039 79.785 Q 64.844 80.078 64.6 80.566 L 64.111 81.543 Q 63.867 82.031 63.696 82.397 L 63.525 82.764 Q 63.477 83.203 62.598 83.984 Q 61.719 84.766 60.596 85.596 Q 59.473 86.426 58.325 87.231 Q 57.178 88.037 56.641 88.525 Q 56.006 89.111 55.591 89.6 Q 55.176 90.088 54.81 90.454 Q 54.443 90.82 54.028 91.04 Q 53.613 91.26 52.979 91.26 Q 52.734 91.26 52.466 91.235 Q 52.197 91.211 51.904 91.211 Q 51.465 91.211 51.001 91.26 Q 50.537 91.309 50.049 91.455 L 49.512 91.528 Q 48.975 91.602 48.34 91.699 Q 47.705 91.797 47.144 91.919 Q 46.582 92.041 46.436 92.139 Q 46.045 92.529 45.996 93.628 Q 45.947 94.727 45.703 96.191 Q 45.557 96.826 45.41 97.266 L 45.142 98.071 Q 45.02 98.438 44.946 98.853 Q 44.873 99.268 44.873 99.854 Q 44.873 100.244 44.898 100.635 Q 44.922 101.025 44.922 101.416 Q 44.922 102.832 44.458 105.298 Q 43.994 107.764 43.506 110.4 Q 43.359 111.182 43.311 112.134 Q 43.262 113.086 43.164 113.33 Q 42.92 113.818 42.139 114.404 Q 41.357 114.99 40.967 115.527 L 39.868 117.114 Q 39.209 118.066 38.379 118.799 Q 38.281 118.848 37.842 118.945 Q 37.402 119.043 37.305 119.141 Q 36.865 119.727 36.816 120.313 Q 36.768 120.898 36.646 121.387 Q 36.524 121.875 36.157 122.241 Q 35.791 122.607 34.766 122.754 Q 34.522 122.412 34.522 121.875 Q 34.522 120.898 35.156 119.775 Q 35.791 118.652 36.182 117.285 Q 36.524 116.113 36.792 114.185 Q 37.061 112.256 37.402 109.717 Q 37.744 107.178 38.135 104.102 Q 38.525 101.025 39.111 97.607 Q 39.356 96.338 39.649 95.386 Q 39.941 94.434 39.941 93.75 Q 39.941 92.871 39.478 92.529 Q 39.014 92.188 38.452 92.065 Q 37.891 91.943 37.427 91.821 Q 36.963 91.699 36.963 91.26 Q 36.963 90.625 37.28 90.112 Q 37.598 89.6 38.062 89.16 Q 38.525 88.721 39.038 88.281 Q 39.551 87.842 39.893 87.402 Q 40.039 87.207 40.039 86.89 Q 40.039 86.572 40.234 86.328 Q 40.479 86.035 41.016 85.791 Q 41.553 85.547 41.65 85.254 Q 41.992 84.473 42.163 83.398 Q 42.334 82.324 42.407 81.152 Q 42.481 79.98 42.529 78.76 Q 42.578 77.539 42.774 76.465 Q 42.92 75.586 43.286 74.707 Q 43.652 73.828 43.848 72.852 Q 44.141 71.436 44.165 70.215 Q 44.19 68.994 44.58 67.725 Q 44.678 67.383 44.946 66.65 Q 45.215 65.918 45.361 65.186 Q 45.508 64.355 45.483 63.647 Q 45.459 62.939 45.703 62.256 Q 45.801 61.963 45.874 61.475 Q 45.947 60.986 45.996 60.4 Q 46.045 59.814 46.143 59.253 Q 46.24 58.691 46.436 58.252 Q 46.68 57.568 46.777 56.177 Q 46.875 54.785 47.119 53.516 Q 47.315 52.393 47.534 51.465 Q 47.754 50.537 47.9 49.512 Q 48.047 48.389 48.047 47.266 Q 48.047 46.143 48.242 45.508 Q 48.291 45.41 48.633 45.02 Q 48.975 44.629 49.316 44.043 Q 49.561 43.652 49.756 43.018 Q 49.951 42.383 50.049 42.236 Q 50.195 42.09 50.781 41.87 Q 51.367 41.65 51.904 41.113 Q 52.246 40.82 52.441 40.503 Q 52.637 40.186 52.881 39.893 Q 53.125 39.6 53.467 39.355 Q 53.809 39.111 54.443 38.965 Q 54.981 38.965 55.371 39.233 Q 55.762 39.502 55.762 40.039 Q 55.762 40.479 55.615 41.064 Q 55.469 41.65 55.249 42.285 L 54.81 43.555 Q 54.59 44.189 54.443 44.775 Q 53.857 47.119 53.442 49.39 Q 53.027 51.66 52.686 53.931 Q 52.344 56.201 52.002 58.545 Q 51.66 60.889 51.172 63.379 Q 51.318 63.574 51.465 63.574 Q 51.758 63.574 52.051 63.159 Q 52.344 62.744 52.71 62.134 Q 53.076 61.523 53.491 60.767 Q 53.906 60.01 54.443 59.326 Q 55.127 58.447 56.055 57.373 Q 56.982 56.299 58.057 54.98 Q 58.643 54.297 59.399 53.589 Q 60.156 52.881 60.986 51.66 Q 61.182 51.416 61.353 51.123 Q 61.524 50.83 61.768 50.586 Q 61.914 50.439 62.378 50.293 Q 62.842 50.146 63.184 49.902 Q 63.428 49.707 63.745 49.316 Q 64.063 48.926 64.429 48.56 Q 64.795 48.193 65.21 47.925 Q 65.625 47.656 66.113 47.656 Q 66.357 47.656 66.748 47.9 Q 67.139 48.145 67.578 48.389 Q 67.627 48.486 67.969 49.414 Q 68.311 50.342 68.701 51.807 Q 69.092 53.271 69.434 55.029 Q 69.775 56.787 69.775 58.545 Z M 28.32 41.309 L 27.734 41.309 Q 27.197 41.309 26.685 41.602 Q 26.172 41.895 25.049 42.432 Q 24.463 42.627 23.511 42.578 Q 22.559 42.529 21.387 42.773 Q 21.24 42.822 20.996 43.14 Q 20.752 43.457 20.654 43.506 Q 19.971 43.701 19.092 43.823 Q 18.213 43.945 17.456 44.214 Q 16.699 44.482 16.187 45.02 Q 15.674 45.557 15.674 46.582 Q 15.674 47.363 16.065 48.462 Q 16.455 49.561 16.919 50.61 Q 17.383 51.66 17.847 52.441 Q 18.311 53.223 18.457 53.369 Q 18.897 53.857 19.238 54.419 Q 19.58 54.98 19.946 55.64 Q 20.313 56.299 20.728 57.007 Q 21.143 57.715 21.777 58.447 Q 22.168 58.936 22.656 59.375 Q 23.145 59.814 23.584 60.205 Q 24.024 60.596 24.341 60.986 Q 24.658 61.377 24.658 61.719 Q 24.854 62.305 25.928 63.184 Q 27.002 64.063 27.93 65.381 Q 28.027 65.527 28.32 65.796 Q 28.613 66.064 28.931 66.357 Q 29.248 66.65 29.517 66.968 Q 29.785 67.285 29.785 67.578 Q 29.785 67.969 30.176 68.115 Q 30.566 68.262 30.859 68.652 Q 31.104 68.945 31.201 69.336 Q 31.299 69.727 31.592 70.117 Q 32.178 70.996 32.983 71.997 Q 33.789 72.998 33.789 74.463 Q 33.789 75.391 33.399 76.318 Q 33.301 76.563 33.032 76.611 Q 32.764 76.66 32.715 77.051 Q 32.52 77.734 32.324 78.345 Q 32.129 78.955 31.592 79.59 Q 31.055 80.225 30.371 80.762 Q 29.688 81.299 29.004 82.129 Q 28.516 82.764 27.979 83.252 Q 27.441 83.74 26.782 84.277 Q 26.123 84.814 25.244 85.498 Q 24.365 86.182 23.193 87.256 Q 22.803 87.646 22.168 88.159 Q 21.533 88.672 20.264 89.063 Q 19.58 89.307 18.408 89.453 Q 17.236 89.6 15.772 89.722 Q 14.307 89.844 12.647 89.941 L 9.326 90.137 Q 8.106 90.283 6.836 90.405 Q 5.566 90.527 4.248 90.527 Q 2.197 90.527 1.099 90.259 Q 0 89.99 0 88.867 Q 0 88.379 0.22 87.964 Q 0.44 87.549 0.781 87.183 Q 1.123 86.816 1.465 86.475 Q 1.807 86.133 2.051 85.791 Q 2.539 85.059 2.93 84.497 Q 3.32 83.936 3.735 83.545 Q 4.15 83.154 4.59 82.959 Q 5.029 82.764 5.664 82.764 Q 6.348 82.764 7.129 82.886 Q 7.91 83.008 8.667 83.179 Q 9.424 83.35 10.059 83.472 Q 10.693 83.594 11.084 83.594 Q 11.719 83.594 12.329 83.423 Q 12.94 83.252 13.721 83.252 Q 14.551 83.252 15.552 83.423 Q 16.553 83.594 17.383 83.594 Q 18.604 83.594 20.215 83.423 Q 21.826 83.252 23.291 82.861 Q 24.756 82.471 25.757 81.86 Q 26.758 81.25 26.758 80.42 Q 26.758 79.98 26.416 79.199 Q 26.074 78.418 25.562 77.49 Q 25.049 76.563 24.414 75.586 Q 23.779 74.609 23.193 73.73 Q 22.9 73.34 22.461 73.022 Q 22.022 72.705 21.777 72.314 Q 21.484 71.875 21.387 71.362 Q 21.289 70.85 20.996 70.459 Q 20.459 69.727 19.702 69.116 Q 18.945 68.506 18.457 67.92 Q 17.627 66.943 16.895 65.674 Q 16.162 64.404 15.186 63.184 Q 14.893 62.842 14.746 62.695 Q 14.6 62.549 14.111 61.719 Q 13.574 61.035 12.817 60.449 Q 12.061 59.863 11.524 59.18 Q 11.328 58.936 11.353 58.618 Q 11.377 58.301 11.182 58.105 Q 10.596 57.52 9.863 56.86 Q 9.131 56.201 9.131 55.127 Q 9.131 54.395 8.716 53.271 Q 8.301 52.148 8.301 50.732 Q 8.301 49.756 8.74 49.17 Q 9.18 48.584 9.326 47.9 Q 9.522 47.51 9.522 47.144 Q 9.522 46.777 9.717 46.387 Q 9.815 46.289 10.107 46.216 Q 10.4 46.143 10.449 46.045 Q 10.645 45.605 10.864 45.337 Q 11.084 45.068 11.426 44.751 Q 11.768 44.434 12.305 43.994 Q 12.842 43.555 13.721 42.773 Q 13.867 42.676 13.916 42.407 Q 13.965 42.139 14.111 42.041 Q 14.453 41.748 14.844 41.65 Q 15.234 41.553 15.527 41.309 Q 16.846 40.43 17.847 39.795 Q 18.848 39.16 19.727 38.647 Q 20.606 38.135 21.484 37.744 Q 22.363 37.354 23.535 36.963 L 30.127 34.766 Q 30.664 34.229 31.543 34.155 Q 32.422 34.082 33.399 33.691 Q 34.375 33.154 35.889 32.788 Q 37.402 32.422 39.258 32.178 Q 39.649 32.813 39.649 33.203 Q 39.649 33.643 39.404 34.033 Q 39.16 34.424 38.794 34.79 Q 38.428 35.156 38.037 35.498 Q 37.647 35.84 37.402 36.23 Q 36.963 36.914 36.646 37.573 Q 36.328 38.232 35.962 38.77 Q 35.596 39.307 35.132 39.648 Q 34.668 39.99 33.936 39.99 Q 33.691 39.99 33.374 39.893 Q 33.057 39.795 32.764 39.795 Q 32.227 39.795 31.812 40.112 Q 31.397 40.43 30.859 40.576 L 29.663 40.918 Q 29.15 41.064 28.32 41.309 Z M 107.422 77.588 Q 107.764 77.93 107.764 78.369 Q 107.764 79.102 107.324 79.663 Q 106.885 80.225 106.226 80.737 Q 105.566 81.25 104.81 81.787 Q 104.053 82.324 103.418 83.057 Q 102.588 84.033 101.489 85.278 Q 100.391 86.523 99.756 87.793 Q 99.658 88.037 99.146 88.721 Q 98.633 89.404 97.925 90.186 Q 97.217 90.967 96.362 91.553 Q 95.508 92.139 94.727 92.139 Q 94.19 92.139 93.677 91.968 Q 93.164 91.797 92.725 91.528 Q 92.285 91.26 92.017 90.942 Q 91.748 90.625 91.748 90.332 Q 91.748 89.893 92.114 89.453 Q 92.481 89.014 92.481 88.086 Q 92.481 87.842 92.407 87.744 Q 92.334 87.646 92.261 87.5 Q 92.188 87.354 92.139 87.109 Q 92.09 86.865 92.09 86.328 Q 92.09 85.791 92.261 85.181 Q 92.432 84.57 92.651 83.911 Q 92.871 83.252 93.042 82.593 Q 93.213 81.934 93.213 81.299 Q 93.213 81.152 93.189 80.981 Q 93.164 80.811 93.164 80.664 Q 93.164 80.371 93.311 79.785 Q 93.457 79.199 93.652 78.516 Q 93.848 77.832 93.994 77.026 Q 94.141 76.221 94.141 75.488 Q 94.141 74.561 93.945 73.926 Q 93.408 74.121 93.018 74.487 Q 92.627 74.854 92.31 75.317 Q 91.992 75.781 91.675 76.294 Q 91.357 76.807 91.016 77.246 Q 90.82 77.49 90.332 77.881 Q 89.844 78.271 89.331 78.711 Q 88.818 79.15 88.428 79.565 Q 88.037 79.98 88.037 80.225 Q 88.037 80.322 88.086 80.469 Q 88.135 80.615 88.135 80.713 Q 88.135 80.859 87.891 81.152 Q 87.647 81.445 87.378 81.763 Q 87.109 82.08 86.865 82.349 Q 86.621 82.617 86.621 82.715 Q 86.572 83.252 85.791 83.716 Q 85.01 84.18 84.424 84.863 Q 83.984 85.352 83.691 85.889 Q 83.399 86.426 83.154 86.865 Q 82.91 87.305 82.666 87.573 Q 82.422 87.842 82.08 87.842 Q 81.982 87.842 81.763 87.793 Q 81.543 87.744 81.397 87.744 Q 81.055 87.744 80.982 88.184 Q 80.908 88.623 80.811 88.867 Q 80.42 89.502 79.907 89.819 Q 79.395 90.137 78.613 90.723 Q 78.272 90.967 78.149 91.284 Q 78.027 91.602 77.832 91.846 Q 77.637 92.09 77.222 92.261 Q 76.807 92.432 75.928 92.432 Q 75.44 92.432 75 92.334 Q 74.561 92.236 74.561 92.041 Q 74.561 91.943 74.609 91.797 Q 74.658 91.65 74.658 91.553 Q 74.658 91.504 74.463 91.357 Q 74.268 91.211 73.999 90.942 Q 73.731 90.674 73.535 90.21 Q 73.34 89.746 73.34 89.063 Q 73.34 88.281 73.511 87.427 Q 73.682 86.572 73.901 85.742 Q 74.121 84.912 74.316 84.155 Q 74.512 83.398 74.609 82.715 Q 74.805 81.104 74.805 79.443 Q 74.805 77.783 75.342 76.465 Q 75.586 75.977 75.879 75.146 Q 76.172 74.316 76.416 73.193 Q 76.465 72.9 76.563 72.339 Q 76.66 71.777 76.807 71.094 Q 76.953 70.41 77.124 69.702 Q 77.295 68.994 77.539 68.457 Q 77.637 68.311 77.905 68.091 Q 78.174 67.871 78.272 67.725 Q 78.369 67.432 78.394 67.065 Q 78.418 66.699 78.613 66.309 Q 78.711 66.113 79.004 65.894 Q 79.297 65.674 79.346 65.527 Q 79.59 65.088 79.688 64.453 Q 79.785 63.818 80.078 63.379 Q 80.274 63.086 80.762 62.866 Q 81.25 62.646 81.543 62.256 Q 81.787 61.914 81.909 61.523 Q 82.031 61.133 82.227 60.84 Q 82.764 60.254 83.13 59.79 Q 83.496 59.326 83.814 58.936 Q 84.131 58.545 84.424 58.203 Q 84.717 57.861 85.156 57.52 Q 85.449 57.324 85.864 56.787 Q 86.279 56.25 86.621 56.055 Q 87.012 55.908 87.329 55.811 Q 87.647 55.713 88.086 55.371 Q 88.184 55.273 88.281 54.956 Q 88.379 54.639 88.477 54.59 Q 88.818 54.443 89.136 54.346 Q 89.453 54.248 89.893 53.857 Q 90.43 53.369 90.723 52.881 Q 91.016 52.393 91.406 52.051 Q 91.797 51.758 92.285 51.66 Q 92.774 51.563 93.164 51.318 Q 93.897 50.928 94.653 50.269 Q 95.41 49.609 96.24 48.95 Q 97.07 48.291 97.974 47.827 Q 98.877 47.363 99.854 47.363 Q 100.488 47.363 101.148 47.241 Q 101.807 47.119 102.393 47.119 Q 102.93 47.119 103.369 47.314 Q 103.809 47.51 103.809 48.145 Q 103.809 50 103.369 52.295 Q 102.93 54.59 102.417 57.227 Q 101.904 59.863 101.489 62.793 Q 101.074 65.723 101.074 68.848 Q 101.074 68.945 101.148 69.141 Q 101.221 69.336 101.221 69.727 Q 101.221 70.02 101.099 70.435 Q 100.977 70.85 100.83 71.265 Q 100.684 71.68 100.562 72.07 Q 100.44 72.461 100.44 72.754 Q 100.44 73.242 100.464 73.73 Q 100.488 74.219 100.488 74.609 Q 100.488 75.439 100.293 76.465 Q 100.098 77.49 99.829 78.589 Q 99.561 79.688 99.365 80.762 Q 99.17 81.836 99.17 82.764 Q 99.17 83.252 99.219 83.667 Q 99.268 84.082 99.414 84.473 Q 100.049 84.18 100.464 83.74 Q 100.879 83.301 101.245 82.739 Q 101.611 82.178 102.002 81.519 Q 102.393 80.859 103.027 80.127 Q 103.272 79.834 103.711 79.346 Q 104.15 78.857 104.639 78.418 Q 105.127 77.979 105.664 77.637 Q 106.201 77.295 106.69 77.295 Q 107.031 77.295 107.422 77.588 Z M 331.104 55.859 Q 331.006 57.715 330.591 59.229 Q 330.176 60.742 329.565 62.012 Q 328.955 63.281 328.223 64.355 Q 327.49 65.43 326.709 66.455 Q 326.221 67.09 325.928 67.554 Q 325.635 68.018 325.342 68.359 Q 325.049 68.701 324.707 68.945 Q 324.365 69.189 323.779 69.336 Q 323.389 69.434 322.876 69.556 Q 322.363 69.678 321.973 70.068 Q 321.875 70.166 321.777 70.435 Q 321.68 70.703 321.582 70.801 Q 321.191 71.094 320.679 71.167 Q 320.166 71.24 319.775 71.533 Q 319.385 71.875 319.238 72.119 Q 319.092 72.363 318.701 72.607 Q 318.311 72.852 317.798 72.974 Q 317.285 73.096 316.846 73.34 Q 316.504 73.584 316.333 73.901 Q 316.162 74.219 315.772 74.463 Q 314.99 75 314.453 75.269 Q 313.916 75.537 313.599 76.025 Q 313.281 76.514 313.135 77.441 Q 312.988 78.369 312.988 80.273 Q 312.988 81.396 313.062 82.422 Q 313.135 83.447 313.232 83.936 Q 313.281 84.082 313.55 84.595 Q 313.818 85.107 314.233 85.693 Q 314.649 86.279 315.186 86.743 Q 315.723 87.207 316.309 87.207 Q 317.188 87.207 317.871 86.548 Q 318.555 85.889 319.385 85.4 Q 320.02 85.01 321.045 84.351 Q 322.07 83.691 322.705 82.861 Q 322.9 82.568 323.193 82.056 Q 323.486 81.543 323.853 81.03 Q 324.219 80.518 324.683 80.151 Q 325.147 79.785 325.732 79.785 Q 325.977 79.785 326.367 79.932 Q 326.318 80.762 325.855 81.445 Q 325.391 82.129 324.829 82.69 L 323.828 83.691 Q 323.389 84.131 323.389 84.424 Q 323.389 84.521 323.413 84.692 Q 323.438 84.863 323.438 84.961 Q 323.438 85.205 322.876 85.327 Q 322.315 85.449 321.973 85.742 Q 321.729 85.986 321.607 86.304 Q 321.484 86.621 321.24 86.816 Q 320.703 87.256 320.117 87.598 Q 319.531 87.939 319.043 88.33 Q 318.506 88.818 317.944 89.453 Q 317.383 90.088 316.846 90.649 Q 316.309 91.211 315.796 91.602 Q 315.283 91.992 314.844 91.992 Q 314.6 91.992 314.331 91.919 Q 314.063 91.846 313.818 91.846 Q 313.574 91.846 313.428 92.041 Q 313.281 92.236 313.037 92.236 Q 312.598 92.236 312.012 91.821 Q 311.426 91.406 311.035 91.211 Q 310.352 90.967 309.424 90.894 Q 308.496 90.82 308.106 90.527 Q 307.764 90.234 307.593 89.453 Q 307.422 88.672 307.031 87.939 Q 306.641 87.256 306.152 86.816 Q 305.664 86.377 305.566 86.133 Q 305.469 85.84 305.444 85.327 Q 305.42 84.814 305.42 84.253 Q 305.42 83.691 305.371 83.13 Q 305.322 82.568 305.176 82.129 Q 305.127 81.982 304.981 81.86 Q 304.834 81.738 304.834 81.348 Q 304.834 81.396 305.005 81.128 Q 305.176 80.859 305.176 80.664 Q 305.42 76.807 305.884 73.315 Q 306.348 69.824 307.08 66.919 Q 307.813 64.014 308.862 61.841 Q 309.912 59.668 311.377 58.398 Q 311.621 58.203 311.939 58.228 Q 312.256 58.252 312.5 58.057 Q 312.598 57.959 312.671 57.69 Q 312.744 57.422 312.842 57.324 Q 313.086 57.129 313.403 57.129 Q 313.721 57.129 313.916 56.934 Q 314.063 56.836 314.307 56.543 Q 314.551 56.25 314.795 55.908 Q 315.039 55.566 315.283 55.249 Q 315.527 54.932 315.772 54.785 Q 316.357 54.395 317.188 54.248 Q 318.018 54.102 318.701 53.662 Q 318.897 53.564 319.141 53.271 Q 319.385 52.979 319.653 52.661 Q 319.922 52.344 320.166 52.1 Q 320.41 51.855 320.654 51.855 Q 320.752 51.855 320.899 51.88 Q 321.045 51.904 321.143 51.904 Q 321.24 51.904 321.899 51.318 Q 322.559 50.732 323.096 50.391 Q 323.242 50.293 323.267 50.024 Q 323.291 49.756 323.438 49.658 Q 323.682 49.463 324.219 49.341 Q 324.756 49.219 325.244 48.926 Q 325.635 48.682 325.83 48.438 Q 326.025 48.193 326.709 48.193 Q 328.467 48.34 329.395 48.828 Q 330.322 49.316 330.689 50.22 Q 331.055 51.123 331.079 52.515 Q 331.104 53.906 331.104 55.859 Z M 252.637 59.717 L 252.539 59.717 Q 252.539 59.57 252.319 59.448 Q 252.1 59.326 251.807 59.18 Q 251.514 59.033 251.294 58.838 Q 251.074 58.643 251.074 58.35 Q 251.074 57.91 251.27 57.666 Q 251.465 57.422 251.807 57.275 Q 252.149 57.129 252.515 56.958 Q 252.881 56.787 253.272 56.445 Q 253.76 55.957 254.37 55.322 Q 254.981 54.688 255.615 54.028 Q 256.25 53.369 256.958 52.759 Q 257.666 52.148 258.399 51.66 Q 258.545 51.563 258.472 51.465 Q 258.399 51.367 258.74 51.318 Q 258.887 51.318 259.155 51.147 Q 259.424 50.977 259.692 50.757 Q 259.961 50.537 260.156 50.366 Q 260.352 50.195 260.4 50.195 Q 260.498 50.195 260.62 50.22 Q 260.742 50.244 260.84 50.244 Q 261.231 50.244 261.743 50.024 Q 262.256 49.805 263.623 49.805 Q 264.16 49.805 264.575 50.122 Q 264.99 50.439 264.99 51.416 Q 264.99 51.709 264.746 52.344 Q 264.502 52.979 264.209 53.857 Q 263.916 54.736 263.672 55.811 Q 263.428 56.885 263.428 58.057 Q 263.428 58.545 263.477 59.058 Q 263.525 59.57 263.525 60.058 Q 263.525 60.938 263.208 61.548 Q 262.891 62.158 262.744 62.988 Q 262.549 64.014 262.549 65.137 Q 262.549 66.26 262.402 67.383 Q 262.012 69.727 261.475 71.924 Q 260.938 74.121 260.547 76.465 Q 260.4 77.246 260.083 78.467 Q 259.766 79.688 259.766 81.055 Q 259.766 82.324 260.205 83.398 Q 260.938 83.35 261.426 82.959 Q 261.914 82.568 262.305 82.08 Q 262.695 81.592 263.062 81.055 Q 263.428 80.518 263.867 80.127 Q 264.16 79.883 264.722 79.761 Q 265.283 79.639 265.674 79.395 Q 266.065 79.15 266.211 78.711 Q 266.357 78.271 266.846 78.271 Q 266.943 78.271 266.992 78.296 Q 267.041 78.32 267.139 78.32 Q 267.334 78.76 267.334 79.248 Q 267.334 79.736 267.114 80.103 Q 266.895 80.469 266.577 80.786 Q 266.26 81.104 265.894 81.372 Q 265.527 81.641 265.283 81.934 Q 265.186 82.129 265.161 82.495 Q 265.137 82.861 264.941 83.057 Q 264.356 83.691 263.501 84.131 Q 262.647 84.57 262.012 85.254 Q 261.621 85.693 261.426 86.108 Q 261.231 86.523 260.547 87.061 Q 260.01 87.451 259.522 88.135 Q 259.033 88.818 258.447 89.478 Q 257.861 90.137 257.08 90.649 Q 256.299 91.162 255.225 91.162 Q 254.981 91.162 254.785 91.138 Q 254.59 91.113 254.346 91.064 L 254.004 90.869 Q 253.662 90.674 253.247 90.088 Q 252.832 89.502 252.49 88.428 Q 252.149 87.354 252.149 85.596 Q 252.149 85.156 252.319 84.644 Q 252.49 84.131 252.71 83.643 Q 252.93 83.154 253.101 82.642 Q 253.272 82.129 253.272 81.689 Q 253.272 81.25 253.076 80.859 Q 252.881 80.469 252.881 80.029 Q 252.881 79.59 253.272 79.419 Q 253.662 79.248 253.662 78.76 Q 253.662 78.516 253.638 78.32 Q 253.613 78.125 253.613 77.881 Q 253.613 77.295 253.809 77.075 Q 254.004 76.855 254.004 76.465 Q 254.004 76.123 253.882 75.952 Q 253.76 75.781 253.76 75.488 Q 253.76 75.146 254.004 74.829 Q 254.248 74.512 254.346 73.926 Q 254.688 72.803 254.883 71.265 Q 255.078 69.727 255.347 67.944 Q 255.615 66.162 255.957 64.136 Q 256.299 62.109 256.934 60.059 Q 257.129 59.375 257.349 58.081 Q 257.568 56.787 257.617 55.371 Q 257.373 55.225 257.275 55.225 Q 256.885 55.225 256.714 55.859 Q 256.543 56.494 256.201 56.787 Q 255.957 56.982 255.64 56.982 Q 255.322 56.982 255.078 57.129 Q 254.785 57.373 254.614 57.69 Q 254.443 58.008 254.273 58.301 Q 254.102 58.594 253.809 58.887 Q 253.516 59.18 252.93 59.326 Q 252.832 59.375 252.832 59.546 Q 252.832 59.717 252.637 59.717 Z M 114.453 88.721 L 114.453 88.672 Q 114.453 87.695 114.795 87.109 Q 115.137 86.523 115.137 86.279 Q 115.137 85.986 114.941 85.889 Q 114.746 85.791 114.746 85.547 Q 114.746 85.352 114.868 84.985 L 115.137 84.18 Q 115.283 83.74 115.405 83.301 Q 115.527 82.861 115.527 82.617 Q 115.527 82.031 115.405 81.616 Q 115.283 81.201 115.283 80.713 Q 115.283 80.029 115.747 79.443 Q 116.211 78.857 116.211 78.467 Q 116.162 78.271 116.162 78.076 L 116.162 77.637 Q 116.162 76.416 116.431 75.244 Q 116.699 74.072 117.041 73.047 Q 117.383 72.022 117.651 71.192 Q 117.92 70.361 117.92 69.873 Q 117.92 69.629 117.871 69.531 L 117.871 69.336 Q 117.871 68.799 117.7 68.262 Q 117.529 67.725 117.529 67.188 Q 117.529 66.699 117.847 66.089 Q 118.164 65.479 118.262 64.795 Q 118.457 63.672 118.457 62.134 Q 118.457 60.596 118.604 59.326 Q 118.701 58.301 119.043 57.422 Q 119.385 56.543 119.385 56.396 Q 119.141 55.957 118.799 55.591 Q 118.457 55.225 118.213 55.225 Q 117.822 55.225 117.481 55.518 Q 117.139 55.811 116.821 56.226 Q 116.504 56.641 116.211 57.104 Q 115.918 57.568 115.674 57.861 Q 115.283 58.35 114.478 59.131 Q 113.672 59.912 113.135 60.449 Q 112.793 60.84 112.598 61.401 Q 112.402 61.963 111.719 61.963 Q 111.524 61.963 111.401 61.89 Q 111.279 61.816 111.279 61.475 Q 111.279 61.035 111.499 60.62 Q 111.719 60.205 112.012 59.79 Q 112.305 59.375 112.622 59.009 Q 112.94 58.643 113.135 58.252 Q 113.525 57.471 114.404 56.323 Q 115.283 55.176 116.48 53.857 Q 117.676 52.539 119.165 51.147 Q 120.654 49.756 122.266 48.389 Q 122.754 47.998 122.974 47.754 Q 123.193 47.51 123.34 47.388 Q 123.486 47.266 123.633 47.241 Q 123.779 47.217 124.121 47.217 Q 125.732 47.217 126.27 47.729 Q 126.807 48.242 126.807 49.219 Q 126.807 49.512 126.758 49.854 Q 126.709 50.195 126.611 50.586 Q 126.514 50.977 126.123 52.026 Q 125.732 53.076 125.537 54.199 Q 125.244 55.859 125.293 57.471 Q 125.342 59.082 125.195 60.449 Q 124.951 62.305 124.487 64.063 Q 124.024 65.82 123.731 67.676 Q 123.438 69.385 123.267 70.215 Q 123.096 71.045 122.974 71.68 Q 122.852 72.314 122.803 73.047 Q 122.754 73.779 122.754 75.195 Q 122.754 75.732 122.778 76.147 Q 122.803 76.563 122.803 76.953 Q 122.803 77.637 122.51 78.247 Q 122.217 78.857 122.217 79.541 Q 122.217 80.078 122.315 80.664 Q 122.412 81.25 122.412 81.836 Q 122.412 82.373 122.29 82.666 Q 122.168 82.959 121.997 83.105 Q 121.826 83.252 121.655 83.325 Q 121.484 83.398 121.338 83.594 Q 121.143 83.936 120.923 84.595 Q 120.703 85.254 120.606 85.4 Q 120.361 85.693 119.922 85.791 Q 119.482 85.889 119.141 86.133 Q 118.408 86.719 117.505 87.769 Q 116.602 88.818 115.747 89.868 Q 114.893 90.918 114.16 91.675 Q 113.428 92.432 113.037 92.432 Q 112.793 92.432 112.671 92.358 Q 112.549 92.285 112.549 91.943 Q 112.549 91.504 112.793 91.162 Q 113.037 90.82 113.355 90.454 Q 113.672 90.088 113.989 89.673 Q 114.307 89.258 114.453 88.721 Z M 357.861 52.051 L 358.594 54.59 Q 358.789 55.273 359.033 55.908 Q 359.277 56.543 359.326 57.08 Q 359.326 57.52 359.131 57.69 Q 358.936 57.861 358.936 58.252 Q 358.936 58.496 359.131 58.862 Q 359.326 59.229 359.326 59.717 Q 359.326 60.742 359.277 61.475 Q 359.229 62.207 359.155 62.842 Q 359.082 63.477 358.936 64.111 Q 358.789 64.746 358.594 65.527 Q 358.203 67.236 357.91 68.921 Q 357.617 70.605 357.178 72.461 Q 357.129 72.656 356.909 73.047 Q 356.69 73.438 356.445 73.926 Q 356.201 74.414 355.982 74.902 Q 355.762 75.391 355.664 75.732 Q 355.42 76.709 354.907 77.344 Q 354.395 77.979 353.857 79.004 Q 353.613 79.541 353.516 80.2 Q 353.418 80.859 353.125 81.201 Q 353.027 81.348 352.612 81.689 Q 352.197 82.031 351.685 82.471 L 350.659 83.35 Q 350.147 83.789 349.854 84.131 Q 349.658 84.375 349.487 84.717 Q 349.316 85.059 349.121 85.254 Q 348.877 85.4 348.56 85.4 Q 348.242 85.4 347.998 85.596 Q 347.9 85.742 347.827 86.06 Q 347.754 86.377 347.559 86.377 Q 347.461 86.377 347.29 86.353 Q 347.119 86.328 347.022 86.328 Q 346.826 86.328 346.143 86.841 Q 345.459 87.354 344.653 87.988 Q 343.848 88.623 343.14 89.209 Q 342.432 89.795 342.188 89.941 Q 341.846 90.186 341.48 90.332 Q 341.113 90.479 340.772 90.723 Q 340.332 90.918 340.088 91.187 Q 339.844 91.455 339.6 91.675 Q 339.356 91.895 339.063 92.041 Q 338.77 92.188 338.232 92.188 Q 338.086 92.188 337.647 91.992 Q 337.207 91.797 336.768 91.479 Q 336.328 91.162 335.962 90.723 Q 335.596 90.283 335.596 89.795 Q 335.596 89.648 335.645 89.478 Q 335.693 89.307 335.693 89.111 Q 335.693 88.965 335.645 88.867 Q 335.059 87.646 334.351 86.548 Q 333.643 85.449 333.643 83.936 Q 333.643 83.398 333.789 82.837 Q 333.936 82.275 333.936 81.299 Q 333.936 80.078 333.789 78.491 Q 333.643 76.904 333.643 75.342 Q 333.643 73.877 334.082 72.07 Q 334.522 70.264 335.254 68.433 Q 335.986 66.602 336.939 64.893 Q 337.891 63.184 338.916 61.914 Q 339.649 60.986 340.479 60.156 Q 341.309 59.326 342.212 58.447 Q 343.115 57.568 344.043 56.641 Q 344.971 55.713 345.85 54.59 Q 346.387 53.906 347.29 53.174 Q 348.193 52.441 349.121 51.66 Q 349.365 51.514 349.658 51.514 Q 349.951 51.514 350.195 51.318 Q 350.684 50.977 351.025 50.586 Q 351.367 50.195 351.611 49.854 Q 351.856 49.512 352.1 49.292 Q 352.344 49.072 352.637 49.072 Q 352.881 49.072 353.101 49.121 Q 353.32 49.17 353.565 49.17 Q 353.857 49.17 354.004 48.999 Q 354.15 48.828 354.297 48.608 Q 354.443 48.389 354.663 48.218 Q 354.883 48.047 355.322 48.047 Q 356.25 48.193 356.665 48.511 Q 357.08 48.828 357.227 49.316 Q 357.373 49.805 357.471 50.488 Q 357.568 51.172 357.861 52.051 Z M 294.678 60.596 Q 294.678 61.621 294.531 62.866 Q 294.385 64.111 294.214 65.43 Q 294.043 66.748 293.848 68.042 Q 293.652 69.336 293.604 70.41 Q 293.506 71.24 293.506 71.997 Q 293.506 72.754 293.262 73.73 L 293.018 73.975 Q 292.871 74.121 292.871 74.414 Q 292.725 75.928 292.041 77.49 Q 291.357 79.053 290.674 80.273 Q 290.234 81.104 289.575 82.153 Q 288.916 83.203 288.208 84.155 Q 287.5 85.107 286.89 85.767 Q 286.279 86.426 285.938 86.426 Q 285.498 86.426 284.863 85.986 Q 284.229 85.547 283.569 84.766 Q 282.91 83.984 282.275 82.935 Q 281.641 81.885 281.201 80.615 Q 281.055 80.273 280.737 79.907 Q 280.42 79.541 280.42 79.346 Q 280.42 79.199 280.444 79.077 Q 280.469 78.955 280.469 78.809 Q 280.322 78.32 280.151 77.295 Q 279.981 76.27 279.834 75.122 Q 279.688 73.975 279.565 72.9 Q 279.443 71.826 279.443 71.143 Q 279.443 70.703 279.614 70.313 Q 279.785 69.922 279.981 69.531 Q 280.176 69.141 280.347 68.726 Q 280.518 68.311 280.518 67.822 Q 280.518 67.529 280.469 67.236 Q 280.42 66.943 280.42 66.602 Q 280.42 66.064 280.762 65.698 Q 281.104 65.332 281.201 64.941 Q 281.445 64.014 281.47 63.647 Q 281.494 63.281 281.592 62.842 Q 281.69 62.402 281.958 61.572 Q 282.227 60.742 282.959 58.838 Q 283.008 58.789 283.643 57.983 Q 284.277 57.178 285.156 56.128 Q 286.035 55.078 286.963 54.077 Q 287.891 53.076 288.477 52.539 Q 289.014 52.1 289.624 51.904 Q 290.234 51.709 290.674 51.465 Q 290.82 51.367 291.211 51.025 Q 291.602 50.684 292.285 50.684 Q 292.383 50.684 292.822 51.685 Q 293.262 52.686 293.604 54.004 Q 293.848 55.029 293.799 56.03 Q 293.75 57.031 293.945 58.008 Q 294.043 58.594 294.165 58.936 Q 294.287 59.277 294.409 59.497 Q 294.531 59.717 294.605 59.937 Q 294.678 60.156 294.678 60.596 Z M 96.094 52.441 Q 96.484 53.369 96.484 54.59 Q 96.484 55.762 96.216 56.885 Q 95.947 58.008 95.752 58.984 Q 95.41 60.645 95.068 62.085 Q 94.727 63.525 94.287 64.893 Q 93.848 66.26 93.237 67.578 Q 92.627 68.896 91.748 70.264 Q 91.211 71.094 90.625 71.851 Q 90.039 72.607 89.551 73.535 Q 89.453 73.779 89.429 74.292 Q 89.404 74.805 89.209 75.049 Q 89.014 75.293 88.648 75.659 Q 88.281 76.025 87.842 76.416 Q 87.402 76.807 86.987 77.197 Q 86.572 77.588 86.279 77.93 Q 86.084 78.174 86.084 78.491 Q 86.084 78.809 85.938 79.004 Q 85.645 79.395 85.23 79.834 Q 84.815 80.273 84.424 80.518 Q 83.887 80.908 83.594 81.689 Q 83.301 82.471 82.959 83.301 Q 82.617 84.131 82.056 84.79 Q 81.494 85.449 80.469 85.596 Q 80.469 82.568 81.274 79.321 Q 82.08 76.074 83.008 72.852 Q 83.154 72.266 83.203 71.362 Q 83.252 70.459 83.325 69.458 Q 83.399 68.457 83.545 67.529 Q 83.691 66.602 84.082 65.918 Q 84.473 65.186 85.083 64.233 Q 85.693 63.281 86.328 62.256 Q 86.963 61.23 87.524 60.278 Q 88.086 59.326 88.477 58.643 Q 88.574 58.447 88.648 58.081 Q 88.721 57.715 88.818 57.52 Q 89.111 57.178 89.673 56.836 Q 90.234 56.494 90.625 56.055 Q 91.065 55.518 91.284 55.005 Q 91.504 54.492 91.748 54.248 Q 91.943 54.053 92.285 54.077 Q 92.627 54.102 92.822 53.857 Q 93.066 53.711 93.066 53.442 Q 93.066 53.174 93.311 53.174 Q 93.457 53.174 93.604 53.198 Q 93.75 53.223 93.848 53.223 Q 94.092 53.223 94.458 52.808 Q 94.824 52.393 95.557 52.393 Q 95.654 52.393 95.801 52.417 Q 95.947 52.441 96.094 52.441 Z M 61.133 55.713 Q 61.231 55.713 61.621 56.104 Q 62.012 56.494 62.012 57.178 Q 62.012 57.471 61.987 57.764 Q 61.963 58.057 61.963 58.35 Q 61.963 58.887 62.354 59.912 Q 62.744 60.938 62.842 62.988 Q 62.842 63.721 62.671 64.551 Q 62.5 65.381 62.451 66.309 Q 62.354 67.627 62.329 69.092 Q 62.305 70.557 62.232 72.021 Q 62.158 73.486 61.963 74.829 Q 61.768 76.172 61.377 77.246 Q 61.279 77.393 60.938 78.052 Q 60.596 78.711 60.596 79.248 Q 60.596 79.443 60.62 79.59 Q 60.645 79.736 60.645 79.932 L 60.645 80.127 Q 60.596 80.225 60.449 80.591 Q 60.303 80.957 60.083 81.372 Q 59.863 81.787 59.619 82.178 Q 59.375 82.568 59.18 82.715 Q 58.936 82.861 58.643 82.861 Q 58.35 82.861 58.057 83.057 Q 57.764 83.301 57.568 83.447 Q 57.373 83.594 57.153 83.716 Q 56.934 83.838 56.665 83.936 Q 56.397 84.033 55.908 84.131 Q 55.664 84.18 55.322 84.399 Q 54.981 84.619 54.468 84.839 Q 53.955 85.059 53.32 85.254 Q 52.686 85.449 51.856 85.449 Q 50.879 85.449 49.683 85.278 Q 48.486 85.107 47.51 84.863 Q 47.51 81.396 48.315 78.271 Q 49.121 75.146 50.44 72.461 Q 50.635 72.07 50.952 71.729 Q 51.27 71.387 51.514 70.996 Q 51.758 70.557 51.904 70.068 Q 52.051 69.58 52.246 69.189 Q 52.49 68.799 52.808 68.457 Q 53.125 68.115 53.369 67.725 Q 55.225 64.063 56.934 61.182 Q 58.643 58.301 60.986 55.713 L 61.133 55.713 Z M 348.389 79.395 Q 347.949 80.664 347.412 81.934 Q 346.875 83.203 345.85 84.131 Q 345.606 84.326 345.288 84.326 Q 344.971 84.326 344.727 84.473 Q 344.482 84.717 344.116 85.181 Q 343.75 85.645 342.969 85.645 Q 341.699 85.645 340.796 83.301 Q 339.893 80.957 339.893 76.66 Q 339.893 75.195 340.186 74.072 Q 340.479 72.949 340.772 71.387 Q 341.162 69.336 341.553 67.7 Q 341.943 66.064 342.481 64.6 Q 343.018 63.135 343.823 61.719 Q 344.629 60.303 345.85 58.643 Q 346.191 58.154 346.436 57.593 Q 346.68 57.031 346.924 56.787 Q 347.9 56.055 348.999 55.469 Q 350.098 54.883 350.635 54.883 Q 351.025 54.883 351.196 55.664 Q 351.367 56.445 351.465 57.666 Q 351.563 58.887 351.587 60.303 Q 351.611 61.719 351.709 62.988 Q 351.807 64.014 351.929 64.941 Q 352.051 65.869 352.051 66.65 Q 351.953 67.383 351.709 68.262 Q 351.465 69.141 351.318 70.264 Q 351.172 71.045 351.148 71.753 Q 351.123 72.461 351.05 73.169 Q 350.977 73.877 350.806 74.585 Q 350.635 75.293 350.195 76.123 Q 350.098 76.318 349.854 76.636 Q 349.609 76.953 349.365 77.295 Q 349.121 77.637 348.95 78.027 Q 348.779 78.418 348.779 78.76 Q 348.779 78.857 348.804 79.028 Q 348.828 79.199 348.828 79.297 Q 348.828 79.395 348.682 79.395 L 348.389 79.395 Z M 144.922 51.563 L 144.775 51.563 Q 144.482 51.563 144.482 51.855 Q 144.482 52.002 144.507 52.124 Q 144.531 52.246 144.531 52.344 Q 144.531 52.588 144.092 53.32 Q 143.652 54.053 142.847 55.054 Q 142.041 56.055 140.894 57.104 Q 139.746 58.154 138.33 58.936 Q 137.549 59.375 136.572 59.937 Q 135.596 60.498 134.375 60.498 Q 134.277 60.498 134.155 60.474 Q 134.033 60.449 133.936 60.449 Q 133.887 60.449 133.496 60.4 Q 133.106 60.352 132.642 60.303 Q 132.178 60.254 131.69 60.205 Q 131.201 60.156 131.006 60.059 Q 130.566 59.912 130.029 59.058 Q 129.492 58.203 128.809 57.52 Q 128.467 57.178 128.076 56.909 Q 127.686 56.641 127.368 56.348 Q 127.051 56.055 126.831 55.737 Q 126.611 55.42 126.611 55.029 Q 126.758 55.029 127.417 54.224 Q 128.076 53.418 128.882 52.466 Q 129.688 51.514 130.42 50.684 Q 131.152 49.854 131.397 49.854 Q 131.592 49.854 131.763 49.561 Q 131.934 49.268 132.08 48.901 Q 132.227 48.535 132.422 48.169 Q 132.617 47.803 132.861 47.656 Q 133.496 47.705 133.74 48.291 Q 133.984 48.877 134.082 49.707 Q 134.18 50.537 134.253 51.538 Q 134.326 52.539 134.619 53.369 Q 134.912 54.199 135.596 54.761 Q 136.279 55.322 137.598 55.322 Q 137.891 55.322 138.159 55.273 Q 138.428 55.225 138.721 55.078 Q 139.014 54.932 139.429 54.639 Q 139.844 54.346 140.479 53.857 Q 141.065 53.418 141.528 52.808 L 142.456 51.587 Q 142.92 50.977 143.506 50.488 Q 144.092 50 144.873 49.854 Q 144.971 50.049 145.117 50.317 Q 145.264 50.586 145.264 50.928 Q 145.264 51.025 145.239 51.099 Q 145.215 51.172 145.215 51.27 Q 145.166 51.563 144.922 51.563 Z M 324.17 55.859 Q 324.219 56.104 324.243 56.396 Q 324.268 56.689 324.268 56.934 Q 324.268 59.326 323.853 61.328 Q 323.438 63.33 322.705 64.6 Q 322.412 65.088 322.266 65.649 Q 322.119 66.211 321.973 66.455 Q 321.387 67.188 320.581 67.92 Q 319.775 68.652 318.921 69.36 Q 318.066 70.068 317.236 70.703 Q 316.406 71.338 315.772 71.924 Q 315.625 72.07 315.527 72.314 Q 315.43 72.559 315.283 72.827 Q 315.137 73.096 314.917 73.267 Q 314.697 73.438 314.258 73.438 Q 313.623 73.438 313.501 73.071 Q 313.379 72.705 313.379 72.168 Q 313.379 70.459 313.818 68.677 Q 314.258 66.895 314.697 65.332 Q 314.795 64.893 315.112 64.502 Q 315.43 64.111 315.43 63.721 Q 315.43 63.477 315.381 63.159 Q 315.332 62.842 315.332 62.598 Q 315.332 61.963 315.723 61.743 Q 316.113 61.523 316.113 61.23 Q 316.113 61.133 316.089 60.986 Q 316.065 60.84 316.065 60.742 Q 316.113 60.742 316.455 60.156 Q 316.797 59.57 317.212 58.789 Q 317.627 58.008 318.042 57.251 Q 318.457 56.494 318.701 56.201 Q 318.897 55.957 319.434 55.518 Q 319.971 55.078 320.581 54.639 Q 321.191 54.199 321.753 53.882 Q 322.315 53.564 322.607 53.564 Q 322.949 53.564 323.071 53.711 Q 323.193 53.857 323.242 54.102 Q 323.291 54.346 323.291 54.614 Q 323.291 54.883 323.438 55.127 Q 323.486 55.225 323.804 55.493 Q 324.121 55.762 324.17 55.859 Z M 268.945 29.102 Q 269.092 29.395 269.092 29.736 Q 269.092 30.322 268.701 31.006 Q 268.311 31.689 267.847 32.324 Q 267.383 32.959 266.943 33.472 Q 266.504 33.984 266.406 34.18 Q 266.113 34.814 265.942 35.889 Q 265.772 36.963 265.283 37.842 Q 265.088 38.232 264.941 38.428 Q 264.795 38.623 264.6 39.307 Q 264.404 39.746 264.111 40.332 Q 263.818 40.918 263.477 41.431 Q 263.135 41.943 262.793 42.31 Q 262.451 42.676 262.158 42.676 Q 260.889 42.676 260.425 41.431 Q 259.961 40.186 259.961 38.477 Q 259.961 37.793 260.034 37.061 Q 260.107 36.328 260.205 35.645 Q 260.303 34.912 260.693 34.57 Q 261.084 34.229 261.328 33.496 Q 261.572 32.861 261.67 32.251 Q 261.768 31.641 261.89 31.104 Q 262.012 30.566 262.183 30.151 Q 262.354 29.736 262.744 29.443 Q 263.037 29.248 263.452 29.102 Q 263.867 28.955 264.331 28.882 Q 264.795 28.809 265.259 28.76 Q 265.723 28.711 266.016 28.711 Q 266.016 28.76 266.455 28.54 Q 266.895 28.32 267.432 28.32 Q 267.529 28.32 268.091 28.491 Q 268.652 28.662 268.945 29.102 Z" vector-effect="non-scaling-stroke"/></g></svg>
